<?xml version="1.0" encoding="utf-8"?>
<!-- Generator: Adobe Illustrator 14.0.0, SVG Export Plug-In . SVG Version: 6.00 Build 43363)  -->
<!DOCTYPE svg PUBLIC "-//W3C//DTD SVG 1.1//EN" "http://www.w3.org/Graphics/SVG/1.1/DTD/svg11.dtd">
<svg version="1.1" id="Layer_1" xmlns="http://www.w3.org/2000/svg" xmlns:xlink="http://www.w3.org/1999/xlink" x="0px" y="0px"
	 width="225px" height="93.383px" viewBox="0 0 225 93.383" enable-background="new 0 0 225 93.383" xml:space="preserve">
<g>
	<polygon fill-rule="evenodd" clip-rule="evenodd" fill="#ED1D24" points="0,0 225,0 225,93.383 0,93.383 0,0 	"/>
	<g id="Layer_3">
		<polygon fill-rule="evenodd" clip-rule="evenodd" fill="#ED1D24" stroke="#ED1D24" points="56.881,57.182 63.875,36.2 
			54.724,46.766 56.881,57.182 		"/>
		<g>
			<polygon fill-rule="evenodd" clip-rule="evenodd" fill="#FFFFFF" points="55.717,71.353 70.224,27.908 86.253,27.908 
				83.126,37.117 71.664,71.353 			"/>
			<path d="M84.858,28.908l-2.678,7.887L70.944,70.353H57.105l13.839-41.444H82.18H84.858 M87.649,26.908h-2.792H82.18H70.944
				h-1.441l-0.456,1.367L55.208,69.719l-0.879,2.634h2.776h13.839h1.439l0.457-1.365L84.076,37.43l2.675-7.878L87.649,26.908
				L87.649,26.908z"/>
		</g>
		<g>
			<path fill-rule="evenodd" clip-rule="evenodd" fill="#FFFFFF" d="M80.245,28.271c-4.232,0-7.547-2.531-7.547-5.762
				c0-3.177,3.386-5.762,7.547-5.762c0.548,0,1.075,0.082,1.54,0.155c0.178,0.028,0.352,0.055,0.519,0.076l0.06,0.007L82.422,17
				c3.212,0.803,5.371,3.017,5.371,5.509c0,2.581-2.168,4.797-5.396,5.515C81.76,28.184,81.007,28.271,80.245,28.271L80.245,28.271z
				"/>
			<path d="M80.245,17.748c0.67,0,1.339,0.149,1.935,0.223c2.678,0.669,4.613,2.455,4.613,4.539c0,2.157-1.935,3.943-4.613,4.539
				c-0.596,0.149-1.265,0.223-1.935,0.223c-3.571,0-6.547-2.083-6.547-4.762C73.697,19.905,76.673,17.748,80.245,17.748
				 M80.245,15.748c-4.713,0-8.547,3.034-8.547,6.762c0,3.792,3.754,6.762,8.547,6.762c0.833,0,1.661-0.096,2.395-0.276
				c3.682-0.828,6.154-3.432,6.154-6.485c0-2.959-2.463-5.563-6.128-6.479l-0.117-0.029l-0.121-0.015
				c-0.157-0.02-0.321-0.045-0.488-0.071C81.438,15.836,80.87,15.748,80.245,15.748L80.245,15.748z"/>
		</g>
		<g>
			<polygon fill-rule="evenodd" clip-rule="evenodd" fill="#FFFFFF" points="41.489,87.275 35.816,60.669 26.565,87.275 
				8.083,87.275 36.079,6.033 54.865,6.033 49.242,22.235 62.966,6.033 85.337,6.033 82.935,8.804 51.113,45.856 59.442,87.275 			
				"/>
			<path d="M83.147,7.033L82.18,8.149L50.036,45.575l8.185,40.7H42.298l-6.25-29.316L25.854,86.275H9.485L36.792,7.033h16.667
				l-6.92,19.94l16.89-19.94h18.75H83.147 M87.528,5.033h-4.381H82.18h-18.75h-0.927l-0.599,0.708l-9.959,11.757l3.404-9.809
				l0.921-2.656h-2.811H36.792h-1.426l-0.464,1.349L7.594,85.624L6.68,88.275h2.805h16.369h1.422l0.467-1.343l7.842-22.553
				l4.757,22.313l0.337,1.583h1.619h15.923h2.442l-0.481-2.395l-7.992-39.743L83.697,9.452l0.961-1.109L87.528,5.033L87.528,5.033z"
				/>
		</g>
		<g>
			<path fill-rule="evenodd" clip-rule="evenodd" fill="#FFFFFF" d="M90.026,72.864c-0.305,0-0.607-0.008-0.907-0.024
				c-2.612-0.182-5.324-1.02-7.455-2.3c-4.404-2.642-6.026-6.866-4.452-11.591l4.02-11.908l10.424-30.74h16.718l-0.608,2.031
				l-3.289,9.8h9.443l-4.158,12.566h-9.455l-6.541,19.336c-0.076,0.236-0.066,0.363-0.058,0.408c0.003-0.001,0.052,0,0.078,0
				c0.308,0,0.888-0.281,1.131-1.035l2.844-8.21h13.256l-3.284,9.943l-0.076,0.15C105.108,68.809,96.683,72.864,90.026,72.864
				L90.026,72.864z"/>
			<path d="M107.031,17.301l-0.223,0.744l-3.721,11.086h3.721h5.729l-3.497,10.566h-2.232h-7.218L92.82,59.713
				c-0.372,1.152,0.205,1.729,0.967,1.729s1.711-0.576,2.083-1.729l2.604-7.517h8.334h2.827l-2.827,8.559l-0.075,0.147
				c-2.283,6.85-10.039,10.962-16.708,10.962c-0.287,0-0.57-0.007-0.853-0.022c-2.158-0.15-4.762-0.818-6.994-2.159
				c-3.349-2.009-5.655-5.506-4.018-10.417L82.18,47.36l10.193-30.06h14.436H107.031 M109.717,15.301h-2.686h-0.223H92.373h-1.434
				l-0.46,1.358l-10.193,30.06l-4.019,11.908c-1.713,5.139,0.114,9.91,4.884,12.771c2.261,1.358,5.135,2.248,7.884,2.439
				c0.349,0.02,0.669,0.027,0.992,0.027c6.985,0,15.828-4.269,18.556-12.185l0.011-0.021l0.068-0.135l0.047-0.143l2.827-8.559
				l0.868-2.627h-2.767h-2.827h-8.334H98.15l2.875-8.499h5.783h2.232h1.445l0.454-1.372l3.496-10.566l0.87-2.628h-2.769h-5.729
				h-0.94l2.836-8.45l0.011-0.031l0.009-0.032l0.223-0.744L109.717,15.301L109.717,15.301z"/>
		</g>
		<polygon fill-rule="evenodd" clip-rule="evenodd" fill="#ED1D24" stroke="#ED1D24" points="110.975,44.087 102.716,44.087 
			101.451,47.808 109.71,47.808 110.975,44.087 		"/>
		<g>
			<polygon fill-rule="evenodd" clip-rule="evenodd" fill="#FFFFFF" points="132.51,87.275 128.217,58.572 118.157,87.275 
				99.674,87.275 105.864,69.43 127.672,6.033 146.477,6.033 139.636,25.002 156.054,6.033 178.624,6.033 164.86,22.118 
				143.289,47.211 149.953,87.275 			"/>
			<path d="M176.452,7.033l-12.352,14.435l-21.875,25.446l6.548,39.361h-15.402l-4.763-31.845l-11.16,31.845h-10.64h-5.729
				l5.729-16.518l21.577-62.725h16.667l-8.185,22.694l19.643-22.694h7.59H176.452 M180.796,5.033h-4.344h-12.352h-7.59h-0.914
				l-0.598,0.691l-12.597,14.553l4.532-12.565l0.966-2.679h-2.848h-16.667h-1.427l-0.465,1.35l-21.577,62.725L99.189,85.62
				l-0.921,2.655h2.811h5.729h10.64h1.418l0.47-1.339l8.489-24.223l3.568,23.857l0.255,1.704h1.723h15.402h2.36l-0.388-2.328
				l-6.395-38.438l21.266-24.737l12.354-14.438L180.796,5.033L180.796,5.033z"/>
		</g>
		<g>
			<path fill-rule="evenodd" clip-rule="evenodd" fill="#FFFFFF" d="M155.668,73.296c-0.436,0-0.875-0.031-1.307-0.093
				c-2.493-0.282-4.474-1.452-5.858-3.474c-2.796-4.082-2.443-10.649-1.291-15.033c1.446-5.651,5.364-11.352,11.166-12.883h-5.68
				l0.492-1.344c2.644-7.215,5.968-11.622,10.463-13.87c3.601-1.882,7.563-2.04,11.311-2.04c3.479,0,7.109,1.763,9.475,4.601
				c2.736,3.286,3.409,7.64,1.893,12.262l-1.715,4.998l-8.786,26.047h-14.843l0.262-0.76
				C159.626,72.599,157.744,73.296,155.668,73.296L155.668,73.296z M164.445,41.813c1.935,0.685,3.763,1.993,5.249,3.712
				l2.161-6.658c0.391-1.117-0.049-2.334-0.427-2.469c-0.323,0.015-1.528,0.865-2.888,4.746l-0.234,0.669H164.445z"/>
			<path d="M174.964,25.56c3.125,0,6.474,1.563,8.706,4.241c2.231,2.679,3.273,6.548,1.711,11.31l-1.711,4.985l-8.558,25.372
				h-11.012h-1.711l0.743-2.157c-2.341,1.69-4.797,2.985-7.465,2.985c-0.384,0-0.772-0.026-1.165-0.083
				c-7.888-0.894-7.888-11.311-6.324-17.263c1.499-5.856,6.153-12.536,13.303-12.536c0.298,0,0.602,0.012,0.908,0.036
				c0.595,0,1.116,0.149,1.711,0.298c2.382,0.818,4.539,2.753,5.953,4.911l2.753-8.483c0.521-1.488,0-3.348-1.042-3.72
				c-0.099-0.028-0.202-0.043-0.31-0.043c-1.028,0-2.442,1.359-3.857,5.4h-3.497h-9.971c2.753-7.516,6.102-11.384,9.971-13.319
				C167.375,25.783,171.021,25.56,174.964,25.56 M174.964,23.56c-3.872,0-7.973,0.167-11.79,2.162
				c-4.705,2.353-8.187,6.935-10.922,14.403l-0.984,2.688h2.611c-3.86,2.658-6.491,7.162-7.638,11.641
				c-1.202,4.576-1.55,11.48,1.437,15.841c1.529,2.231,3.801,3.58,6.571,3.902c0.469,0.065,0.945,0.099,1.419,0.099
				c1.486,0,2.888-0.334,4.161-0.828h2.561h1.711h11.012h1.437l0.459-1.36l8.558-25.373l1.707-4.975
				c1.637-4.986,0.899-9.679-2.065-13.239C182.656,25.461,178.731,23.56,174.964,23.56L174.964,23.56z M168.291,42.813h0.726
				l0.469-1.339c0.592-1.69,1.119-2.7,1.511-3.294c-0.014,0.112-0.038,0.225-0.077,0.335l-1.662,5.12
				C168.944,43.345,168.621,43.07,168.291,42.813L168.291,42.813z"/>
		</g>
		<path fill-rule="evenodd" clip-rule="evenodd" fill="#231F20" d="M166.109,52.57c2.158,0.52,0.595,4.539-0.074,6.62
			c-0.446,1.266-1.042,3.126-1.935,4.168c-0.595,0.67-1.265,1.042-2.008,0.894c-1.937-0.447-1.042-4.093-0.373-6.028
			c0.521-1.488,1.265-3.646,2.381-4.91C164.622,52.718,165.291,52.347,166.109,52.57L166.109,52.57z"/>
		<g>
			<path fill-rule="evenodd" clip-rule="evenodd" fill="#FFFFFF" d="M193.79,74.346c-0.352,0-0.709-0.006-1.075-0.019
				c-2.386-0.125-6.786-0.687-9.678-3.052c-3.235-2.83-3.726-6.992-1.482-12.394l1.171-3.367l13.474-39.214h15.941l-3.942,11.831
				h8.714l-4.401,12.938h-8.698l-6.471,19.552c-0.065,0.197-0.067,0.311-0.063,0.36c0.005-0.002,0.057,0,0.082,0
				c0.312,0,0.895-0.27,1.136-0.991l2.845-8.05h13.272l-3.212,9.288C209.311,67.705,205.577,74.346,193.79,74.346L193.79,74.346z"/>
			<path d="M210.753,17.301l-3.942,11.831h8.705l-3.721,10.938h-8.705l-6.697,20.238c-0.372,1.116,0.205,1.674,0.968,1.674
				c0.764,0,1.712-0.558,2.084-1.674l2.604-7.366h11.161l-2.753,7.961c-2.234,6.921-6.076,12.443-16.666,12.443
				c-0.341,0-0.688-0.006-1.043-0.018c-2.827-0.148-6.622-0.818-9.077-2.827c-2.382-2.084-3.571-5.506-1.191-11.235l1.191-3.422
				l13.243-38.543H210.753 M213.527,15.301h-2.774h-13.84h-1.428l-0.464,1.35l-13.243,38.543l-1.17,3.359
				c-2.987,7.24-0.702,11.312,1.744,13.452l0.025,0.022l0.025,0.021c3.112,2.547,7.751,3.146,10.239,3.276
				c0.417,0.014,0.785,0.021,1.147,0.021c12.501,0,16.49-7.391,18.569-13.829l2.74-7.922l0.917-2.653h-2.808h-11.161h-0.449
				l2.936-8.872h7.261h1.433l0.461-1.356l3.721-10.938l0.899-2.644h-2.793h-5.931l3.065-9.198L213.527,15.301L213.527,15.301z"/>
		</g>
	</g>
</g>
<circle fill-rule="evenodd" clip-rule="evenodd" fill="none" stroke="#000000" stroke-width="0.3" cx="218.768" cy="38.273" r="1.75"/>
<text transform="matrix(1 0 0 1 217.8301 39.1738)" font-family="'FranklinGothic-Medium'" font-size="2.9178">R</text>
</svg>
