<?xml version="1.0" encoding="UTF-8"?>
<svg width="202.33pt" height="63.85pt" version="1.2" viewBox="0 0 202.33 63.85" xmlns="http://www.w3.org/2000/svg">
 <defs>
  <clipPath id="clip1">
   <path d="m0 0h202.33v63.852h-202.33z"/>
  </clipPath>
 </defs>
 <path d="m133.2 15.914c1.6758 1.9219 5.3672 1.832 7.5586 3.2422-2.9609 0.75781-6.6797 0.75781-9.3594 1.8008 0.62891-1.6523 1.1992-3.3711 1.8008-5.043" fill="#0f0e0c"/>
 <path d="m112.32 22.574c-0.87891 4.0391-2.7383 8.6602-3.7812 13.141 5.7227 0.078125 11.75-1.0781 17.633-1.4375 0.79688-1.0625 1.1875-2.5312 1.6172-3.9609 1.1797 1.668 2.0117 4.7891 0.90234 7.1992-8.9297-0.12109-15.352 7.1914-24.109 7.1992-3.9219 0-7.2617-2.25-5.4023-6.6602 2.6289-6.2188 9.1289-10.57 13.141-15.48" fill="#0f0e0c"/>
 <g clip-path="url(#clip1)">
  <path d="m139.68 8.7148c-2.2812 0.28125-3.9102 2.7695-5.4023 3.6016 0.10937-0.011718 0.21094-0.03125 0.17969-0.17969 0.26953-1.2305 0.80078-2.2109 0.90234-3.6016-11.984-4.2188-23.633 1.9492-32.211 6.6602-6.8594 3.7617-12.98 8.1914-17.281 12.602 1.5508-2.6523 3.1992-5.2617 5.0391-7.7422 1.8633-2.5078 3.9414-4.7773 5.582-7.0195-3.5898-0.94141-7.1797-1.9297-10.801-2.6992-5.1406-1.0898-12.289-2.9102-16.551-0.53906-1.2305 0.67969-2.2383 2.3672-3.418 2.5195-0.97266 0.12891-2.582-0.58984-3.7812-0.72266-4.3984-0.48828-8.4414-0.078125-12.418 0.72266-3.7227 0.75-11.594 2.0703-12.602 5.5781-0.64844 2.25 0.78906 4.4414 0.53906 6.6602-0.25 2.1914-2.3516 5.0898-3.418 6.8398-1.3125 2.1406-2.6406 4.0391-4.8633 5.0391-1.3477-6.6992 0.12109-12.668 1.2617-18.348 0.71094-3.5 2.1289-7.0898 0.89844-10.621-3.4297-0.48047-6.3164 2.2422-9.7188 3.6016-6.3789 2.5469-13.488 4.8789-14.398 12.238-0.51172 4.1406 1.0469 6.7812 2.1602 9.7227 2.3789 6.3164 5.3203 11.668 8.8203 16.559-0.95312 1.75-3.2031 2.207-3.4219 4.668 1.0195 1.4414 3.1289 1.6328 5.2188 1.6211 6.043-0.011719 10.992-3.0508 15.473-5.582 9.7695-5.4883 16.328-13.949 23.219-21.949 1.2109-1.4102 2.2109-3.0977 3.7812-3.957 1.5508 7.1094-1.4609 10.906-3.6016 16.727-0.82031 2.2422-3.4297 9.2734-2.1602 12.594 1.3906 3.6562 13.242 3.8164 16.379 1.4492 1.582-1.1992 2.2109-3.9023 3.0625-5.582 1.0781-2.1602 2.0195-4.0312 2.8789-5.9375 0.050781 7.8789 5.8984 10.199 12.242 11.879 13.457 3.5586 27.027-2.8008 34.367-7.1992-0.91797 5.8398 1.3516 6.4297 5.9414 7.3789 11.871 2.4492 23.82-0.37891 33.469-2.6992 8.8516-2.1328 15.973-3.6406 17.281-12.422-1.4219-1.2188-4.9609-1.0703-7.3789-0.71875-7.1406 1.0391-14.051 4.6484-23.574 3.9609-1.7383-0.13281-5.4883-0.73047-5.7578-1.8008-0.41797-1.6602 2.5625-2.8203 5.0508-3.2383 7.1406-1.2109 17.457 0.007812 23.207-2.1641 2.7617-1.0391 6.0938-4.0469 5.7617-7.3789-0.21875-2.25-3.1484-3.418-5.9375-3.5977-7.8711-0.49219-13.5 4.0977-21.77 2.5195 1.0273-1.3125 1.2188-3.4609 2.5195-4.5 6.0391-0.12891 11.918 1.0703 17.641 0.71875 7.9453-0.5 12.438-3.8477 16.195-8.2812 0.40234-0.48047 1.4141-0.98828 1.082-1.7969-13.832-2.1016-32.66-7.6719-49.688-5.582zm62.617 0.71875c0.22266 0.87109-0.75 1.7031-1.25 2.3438-4.2383 5.3164-8.9297 11.617-14.578 15.648 0.40625 2.1211 0.1875 4.9297-0.53906 6.4805 1.4766 1.8867 3.0469 3.6797 3.957 6.1211-1.1992 6.3789-3.9883 11.336-8.4492 14.578-4.3594 3.1602-10.238 4.3984-16.918 5.9375-12.91 2.9844-34.152 5.9141-43.734-1.7969-10.367 6.0781-31.328 6.8906-41.027-0.35938-6.9023 8.7266-34.09 7.957-30.051-9.3594-5.0391 3.8164-12.5 9.0781-19.621 12.059-8.25 3.4414-23.879 3.0586-22.32-8.6406 0.19141-1.3906 0.78125-2.1797 1.4414-3.418-2.4102-4.2109-3.9414-7.1406-5.3984-10.801-1.4023-3.5117-3.5312-7.5117-3.7813-12.41-0.51953-10.43 7.6094-17.051 15.66-20.152 4.1094-1.5898 7.4492-3.8789 11.52-5.0391 6.082-1.7305 11.301 1.6094 11.691 7.1992 7.0703-2.0977 15.68-4.4102 25.02-3.0586 7.4297-5.7812 21.949-2.2109 31.488 0.53906 2.1602 0.62109 5.0625 2.2305 6.6602 2.1602 1.3516-0.058594 3.8008-1.8906 5.2188-2.5195 6.7031-2.9688 15.453-6.1289 25.023-4.5 1.8086 0.30859 3.4688 1.2695 5.3984 1.4414 1.3125 0.11719 2.9102-0.29297 4.3203-0.35938 22.348-1.1016 40.969 4.8984 60.27 7.9062"/>
 </g>
</svg>
